<mxfile host="app.diagrams.net" modified="2023-05-01T15:22:10.531Z" agent="Mozilla/5.0 (Macintosh; Intel Mac OS X 10_15_7) AppleWebKit/537.36 (KHTML, like Gecko) Chrome/112.0.0.0 Safari/537.36" etag="qcaiaOgjeFu2UwVDi3h0" version="21.2.3" type="github">
  <diagram name="Page-1" id="cNSr5C6EXt68GEhc1JuM">
    <mxGraphModel dx="406" dy="481" grid="1" gridSize="10" guides="1" tooltips="1" connect="1" arrows="1" fold="1" page="1" pageScale="1" pageWidth="850" pageHeight="1100" math="0" shadow="0">
      <root>
        <mxCell id="0" />
        <mxCell id="1" parent="0" />
        <mxCell id="AkcQpNj9w4kdjfWHptSJ-26" value="" style="group" parent="1" vertex="1" connectable="0">
          <mxGeometry x="135" y="300" width="385" height="200" as="geometry" />
        </mxCell>
        <mxCell id="AkcQpNj9w4kdjfWHptSJ-20" value="" style="rounded=0;whiteSpace=wrap;html=1;fillColor=none;movable=1;resizable=1;rotatable=1;deletable=1;editable=1;locked=0;connectable=1;dashed=1;" parent="AkcQpNj9w4kdjfWHptSJ-26" vertex="1">
          <mxGeometry x="65" width="320" height="200" as="geometry" />
        </mxCell>
        <mxCell id="AkcQpNj9w4kdjfWHptSJ-1" value="&lt;b&gt;Training&lt;/b&gt;" style="text;html=1;align=center;verticalAlign=middle;resizable=1;points=[];autosize=1;strokeColor=none;fillColor=none;movable=1;rotatable=1;deletable=1;editable=1;locked=0;connectable=1;" parent="AkcQpNj9w4kdjfWHptSJ-26" vertex="1">
          <mxGeometry y="34.5" width="70" height="30" as="geometry" />
        </mxCell>
        <mxCell id="AkcQpNj9w4kdjfWHptSJ-2" value="&lt;b&gt;Test&lt;/b&gt;" style="text;html=1;align=center;verticalAlign=middle;resizable=1;points=[];autosize=1;strokeColor=none;fillColor=none;movable=1;rotatable=1;deletable=1;editable=1;locked=0;connectable=1;" parent="AkcQpNj9w4kdjfWHptSJ-26" vertex="1">
          <mxGeometry x="10" y="135" width="50" height="30" as="geometry" />
        </mxCell>
        <mxCell id="AkcQpNj9w4kdjfWHptSJ-3" value="" style="endArrow=none;dashed=1;html=1;rounded=0;entryX=1;entryY=0.5;entryDx=0;entryDy=0;movable=1;resizable=1;rotatable=1;deletable=1;editable=1;locked=0;connectable=1;" parent="AkcQpNj9w4kdjfWHptSJ-26" target="AkcQpNj9w4kdjfWHptSJ-20" edge="1">
          <mxGeometry width="50" height="50" relative="1" as="geometry">
            <mxPoint x="5" y="100" as="sourcePoint" />
            <mxPoint x="405" y="100" as="targetPoint" />
          </mxGeometry>
        </mxCell>
        <mxCell id="AkcQpNj9w4kdjfWHptSJ-4" value="Training&lt;br&gt;Image" style="rounded=0;whiteSpace=wrap;html=1;movable=1;resizable=1;rotatable=1;deletable=1;editable=1;locked=0;connectable=1;" parent="AkcQpNj9w4kdjfWHptSJ-26" vertex="1">
          <mxGeometry x="85" y="29.5" width="70" height="40" as="geometry" />
        </mxCell>
        <mxCell id="AkcQpNj9w4kdjfWHptSJ-5" value="Testing&lt;br&gt;Image" style="rounded=0;whiteSpace=wrap;html=1;movable=1;resizable=1;rotatable=1;deletable=1;editable=1;locked=0;connectable=1;" parent="AkcQpNj9w4kdjfWHptSJ-26" vertex="1">
          <mxGeometry x="85" y="130" width="70" height="40" as="geometry" />
        </mxCell>
        <mxCell id="AkcQpNj9w4kdjfWHptSJ-6" value="Training data:&lt;br&gt;&lt;font style=&quot;font-size: 10px;&quot;&gt;&lt;i&gt;object location&lt;br&gt;object radian&lt;br&gt;object class&lt;/i&gt;&lt;/font&gt;" style="rounded=0;whiteSpace=wrap;html=1;movable=1;resizable=1;rotatable=1;deletable=1;editable=1;locked=0;connectable=1;" parent="AkcQpNj9w4kdjfWHptSJ-26" vertex="1">
          <mxGeometry x="175" y="14.75" width="100" height="69.5" as="geometry" />
        </mxCell>
        <mxCell id="AkcQpNj9w4kdjfWHptSJ-21" style="edgeStyle=orthogonalEdgeStyle;rounded=0;orthogonalLoop=1;jettySize=auto;html=1;exitX=1;exitY=0.5;exitDx=0;exitDy=0;entryX=0;entryY=0.5;entryDx=0;entryDy=0;movable=1;resizable=1;rotatable=1;deletable=1;editable=1;locked=0;connectable=1;" parent="AkcQpNj9w4kdjfWHptSJ-26" source="AkcQpNj9w4kdjfWHptSJ-4" target="AkcQpNj9w4kdjfWHptSJ-6" edge="1">
          <mxGeometry relative="1" as="geometry" />
        </mxCell>
        <mxCell id="AkcQpNj9w4kdjfWHptSJ-11" value="Multitask&lt;br&gt;Model" style="rounded=0;whiteSpace=wrap;html=1;movable=1;resizable=1;rotatable=1;deletable=1;editable=1;locked=0;connectable=1;" parent="AkcQpNj9w4kdjfWHptSJ-26" vertex="1">
          <mxGeometry x="295" y="29.5" width="70" height="40" as="geometry" />
        </mxCell>
        <mxCell id="AkcQpNj9w4kdjfWHptSJ-22" style="edgeStyle=orthogonalEdgeStyle;rounded=0;orthogonalLoop=1;jettySize=auto;html=1;exitX=1;exitY=0.5;exitDx=0;exitDy=0;entryX=0;entryY=0.5;entryDx=0;entryDy=0;movable=1;resizable=1;rotatable=1;deletable=1;editable=1;locked=0;connectable=1;" parent="AkcQpNj9w4kdjfWHptSJ-26" source="AkcQpNj9w4kdjfWHptSJ-6" target="AkcQpNj9w4kdjfWHptSJ-11" edge="1">
          <mxGeometry relative="1" as="geometry" />
        </mxCell>
        <mxCell id="AkcQpNj9w4kdjfWHptSJ-12" value="Multitask&lt;br&gt;Model" style="rounded=0;whiteSpace=wrap;html=1;movable=1;resizable=1;rotatable=1;deletable=1;editable=1;locked=0;connectable=1;" parent="AkcQpNj9w4kdjfWHptSJ-26" vertex="1">
          <mxGeometry x="190" y="130" width="70" height="40" as="geometry" />
        </mxCell>
        <mxCell id="AkcQpNj9w4kdjfWHptSJ-24" style="edgeStyle=orthogonalEdgeStyle;rounded=0;orthogonalLoop=1;jettySize=auto;html=1;exitX=1;exitY=0.5;exitDx=0;exitDy=0;entryX=0;entryY=0.5;entryDx=0;entryDy=0;movable=1;resizable=1;rotatable=1;deletable=1;editable=1;locked=0;connectable=1;" parent="AkcQpNj9w4kdjfWHptSJ-26" source="AkcQpNj9w4kdjfWHptSJ-5" target="AkcQpNj9w4kdjfWHptSJ-12" edge="1">
          <mxGeometry relative="1" as="geometry" />
        </mxCell>
        <mxCell id="AkcQpNj9w4kdjfWHptSJ-23" style="edgeStyle=orthogonalEdgeStyle;rounded=0;orthogonalLoop=1;jettySize=auto;html=1;exitX=0.5;exitY=1;exitDx=0;exitDy=0;entryX=0.5;entryY=0;entryDx=0;entryDy=0;movable=1;resizable=1;rotatable=1;deletable=1;editable=1;locked=0;connectable=1;" parent="AkcQpNj9w4kdjfWHptSJ-26" source="AkcQpNj9w4kdjfWHptSJ-11" target="AkcQpNj9w4kdjfWHptSJ-12" edge="1">
          <mxGeometry relative="1" as="geometry">
            <Array as="points">
              <mxPoint x="330" y="110" />
              <mxPoint x="225" y="110" />
            </Array>
          </mxGeometry>
        </mxCell>
        <mxCell id="AkcQpNj9w4kdjfWHptSJ-13" value="Final&lt;br&gt;Result" style="rounded=0;whiteSpace=wrap;html=1;movable=1;resizable=1;rotatable=1;deletable=1;editable=1;locked=0;connectable=1;" parent="AkcQpNj9w4kdjfWHptSJ-26" vertex="1">
          <mxGeometry x="295" y="130" width="70" height="40" as="geometry" />
        </mxCell>
        <mxCell id="AkcQpNj9w4kdjfWHptSJ-25" style="edgeStyle=orthogonalEdgeStyle;rounded=0;orthogonalLoop=1;jettySize=auto;html=1;exitX=1;exitY=0.5;exitDx=0;exitDy=0;entryX=0;entryY=0.5;entryDx=0;entryDy=0;movable=1;resizable=1;rotatable=1;deletable=1;editable=1;locked=0;connectable=1;" parent="AkcQpNj9w4kdjfWHptSJ-26" source="AkcQpNj9w4kdjfWHptSJ-12" target="AkcQpNj9w4kdjfWHptSJ-13" edge="1">
          <mxGeometry relative="1" as="geometry" />
        </mxCell>
      </root>
    </mxGraphModel>
  </diagram>
</mxfile>
